# xmcd CD database file
#
# Track frame offsets:
#	150
#	16022
#	32834
#
# Disc length: 649 seconds
#
# Revision: 0
# Processed by: cddbd v1.5.1PL2 Copyright (c) Steve Scherf et al.
# Submitted via: CDex 1.51
#
DISCID=16028703
DTITLE=FiDGHt - Mojo (Single)
DYEAR=2004
DGENRE=Rap Core
TTITLE0=Mojo (Album Ver.)
TTITLE1=The Inevitable (Acoustic Ver.)
TTITLE2=Mojo (Acoustic Ver.)
EXTD=YEAR: 2004
EXTT0=
EXTT1=
EXTT2=
PLAYORDER=
